<svg width="176" height="120" viewBox="0 0 176 120" fill="none" xmlns="http://www.w3.org/2000/svg">
<path d="M147.463 55.2442C149.104 52.2074 149.962 48.8076 149.959 45.3537C149.959 33.4698 139.977 23.8251 127.663 23.8251C124.881 23.8198 122.121 24.3251 119.52 25.3159C119.779 27.4933 120.248 29.6404 120.92 31.7272C122.657 31.0483 124.505 30.7017 126.368 30.7055C134.292 30.7055 140.717 36.8476 140.717 44.412C140.716 47.2225 139.822 49.9596 138.166 52.2276C141.116 53.6464 144.243 54.6611 147.463 55.2442Z" fill="white"/>
<path d="M126.37 30.706C124.506 30.7022 122.658 31.0487 120.922 31.7277C123.265 39.0217 127.884 45.3681 134.098 49.8312C135.386 50.7416 136.748 51.5431 138.168 52.2277C139.824 49.9597 140.718 47.2226 140.719 44.4121C140.72 36.8488 134.294 30.706 126.37 30.706Z" fill="#E71618"/>
<path d="M159.281 38.1722C164.548 34.1262 177.846 25.3823 175.786 21.8339C174.122 18.9742 166.849 22.4291 158.641 26.9041C152.192 30.4294 153.586 26.1723 157.682 19.9567C161.295 14.4858 166.726 7.10283 163.702 5.10386C160.175 2.77981 149.376 15.6494 146.849 18.189C144.322 20.7285 142.016 22.0967 143.284 15.0231C144.983 5.62059 145.316 0.705232 143.206 0.112495C140.255 -0.716772 138.412 2.9751 133.996 13.306C130.829 20.7204 128.067 22.0345 127.726 15.383C127.284 3.43037 124.254 6.17087 123.088 8.00852C119.889 13.0593 118.801 19.1779 119.522 25.3164C122.123 24.3257 124.883 23.8206 127.665 23.826C139.979 23.826 149.962 33.4708 149.962 45.3546C149.964 48.8085 149.106 52.2083 147.465 55.2452C154.496 56.5333 161.901 55.9143 167.484 53.131C168.412 52.6688 170.67 51.2824 169.263 49.3687C166.458 45.5422 161.401 47.5493 155.994 45.9781C151.251 44.5989 155.48 41.0874 159.281 38.1722Z" fill="#E71618"/>
<path d="M138.167 52.2281C136.803 54.0735 135.023 55.5702 132.973 56.5965C130.923 57.6228 128.661 58.1497 126.369 58.1344C118.443 58.1344 112.016 51.9887 112.016 44.4125C112.016 38.6825 115.699 33.7768 120.921 31.7281C120.249 29.6413 119.78 27.4942 119.52 25.3168C111.229 28.4567 105.363 36.2375 105.363 45.3546C105.363 57.2506 115.348 66.8986 127.665 66.8986C131.707 66.9277 135.682 65.8599 139.168 63.8083C142.653 61.7567 145.52 58.7977 147.465 55.2452C144.245 54.662 141.118 53.6472 138.167 52.2281Z" fill="#5A5C5E"/>
<path d="M18.2188 46.8292C18.2075 46.409 18.0325 46.01 17.7313 45.7176C17.4302 45.4251 17.0268 45.2625 16.6076 45.2644H2.01808C1.60011 45.2645 1.19864 45.428 0.899082 45.7202C0.599524 46.0124 0.425513 46.4103 0.414062 46.8292C0.42464 47.246 0.599203 47.6418 0.899685 47.9301C1.20017 48.2185 1.60219 48.376 2.01808 48.3684H7.61704V65.1741C7.62886 65.618 7.81304 66.0396 8.13038 66.3494C8.44772 66.6591 8.87313 66.8325 9.31605 66.8325C9.75896 66.8325 10.1844 66.6591 10.5017 66.3494C10.8191 66.0396 11.0032 65.618 11.0151 65.1741V48.3692H16.6084C17.0253 48.378 17.4288 48.2211 17.7306 47.9327C18.0325 47.6443 18.2083 47.2479 18.2196 46.83L18.2188 46.8292Z" fill="#1A1818"/>
<path d="M23.09 50.2893C18.6317 50.2893 15.1445 53.9533 15.1445 58.6317V58.6976C15.1445 63.4524 18.6938 67.0367 23.3905 67.0367C24.5327 67.0723 25.6703 66.8767 26.7353 66.4617C27.8004 66.0467 28.7712 65.4208 29.5896 64.6213C29.749 64.489 29.8779 64.3236 29.9671 64.1364C30.0564 63.9492 30.104 63.7448 30.1067 63.5373C30.0954 63.1434 29.9287 62.77 29.6432 62.499C29.3577 62.2281 28.9767 62.0817 28.5837 62.0919C28.2222 62.0963 27.8739 62.2291 27.6008 62.4667C26.4847 63.5361 24.9948 64.124 23.451 64.1042C20.8931 64.1042 19.0253 62.4994 18.5595 59.9664H29.2121C29.6256 59.9715 30.0244 59.8121 30.3208 59.523C30.6173 59.234 30.7873 58.8388 30.7935 58.4243C30.7935 54.3782 28.1481 50.2893 23.09 50.2893ZM23.0295 53.16C25.7826 53.16 27.0781 55.2265 27.4165 57.3245H18.5579C19.0185 54.8505 20.7951 53.16 23.0299 53.16H23.0295Z" fill="#1A1818"/>
<path d="M34.5279 44.2447C34.3139 44.2426 34.1016 44.2828 33.9032 44.3631C33.7048 44.4435 33.5241 44.5623 33.3716 44.7128C33.2192 44.8633 33.0978 45.0425 33.0146 45.2401C32.9314 45.4377 32.8879 45.6499 32.8867 45.8644V65.2109C32.8874 65.4282 32.9314 65.6431 33.016 65.8432C33.1006 66.0432 33.2243 66.2243 33.3796 66.3759C33.535 66.5274 33.719 66.6463 33.9208 66.7257C34.1226 66.805 34.3382 66.8431 34.5549 66.8379C34.7704 66.8433 34.9849 66.805 35.1854 66.7254C35.3858 66.6458 35.5683 66.5265 35.7217 66.3746C35.8751 66.2227 35.9964 66.0414 36.0783 65.8414C36.1602 65.6415 36.2011 65.427 36.1984 65.2109V45.8644C36.1902 45.4278 36.0099 45.0123 35.6968 44.7087C35.3837 44.4052 34.9634 44.2383 34.5279 44.2447Z" fill="#1A1818"/>
<path d="M47.6823 57.7656L52.4274 53.2251C52.6105 53.0774 52.7595 52.8915 52.8639 52.6804C52.9684 52.4693 53.0259 52.238 53.0324 52.0024C53.0331 51.7985 52.9934 51.5965 52.9155 51.4081C52.8376 51.2197 52.723 51.0488 52.5785 50.9052C52.434 50.7617 52.2625 50.6485 52.0738 50.5721C51.8852 50.4957 51.6834 50.4577 51.48 50.4603C51.2373 50.4613 50.9977 50.5152 50.7778 50.6183C50.558 50.7213 50.3631 50.8711 50.2067 51.0571L42.673 58.5262V45.8644C42.673 45.4244 42.4986 45.0024 42.1883 44.6913C41.8779 44.3802 41.457 44.2054 41.0181 44.2054C40.5792 44.2054 40.1583 44.3802 39.848 44.6913C39.5376 45.0024 39.3633 45.4244 39.3633 45.8644V65.2108C39.3646 65.4287 39.4093 65.6441 39.4947 65.8444C39.5801 66.0447 39.7045 66.2259 39.8606 66.3774C40.0167 66.529 40.2015 66.6477 40.404 66.7268C40.6065 66.8058 40.8227 66.8436 41.0399 66.8378C41.2548 66.8428 41.4686 66.8041 41.6683 66.7242C41.868 66.6443 42.0495 66.5248 42.202 66.3729C42.3545 66.221 42.4748 66.0397 42.5558 65.84C42.6367 65.6403 42.6765 65.4263 42.673 65.2108V62.5116L45.3397 59.9453L50.368 66.1206C50.5202 66.3471 50.7269 66.5316 50.9689 66.6569C51.211 66.7823 51.4806 66.8445 51.753 66.8378C51.961 66.8461 52.1685 66.8123 52.3631 66.7383C52.5577 66.6644 52.7355 66.5518 52.8857 66.4074C53.0359 66.263 53.1555 66.0896 53.2373 65.8978C53.3191 65.7059 53.3615 65.4995 53.3619 65.2909C53.3623 64.8992 53.2164 64.5215 52.9529 64.2324L47.6819 57.7656H47.6823Z" fill="#1A1818"/>
<path d="M62.2279 50.2893C57.4001 50.2893 53.625 53.9686 53.625 58.6612V58.7247C53.625 63.3861 57.3759 67.038 62.1658 67.038C67.0057 67.038 70.8002 63.3635 70.8002 58.6624V58.609C70.8002 53.9407 67.0315 50.2905 62.2279 50.2905V50.2893ZM56.9895 58.6078C56.9895 55.5536 59.2199 53.2437 62.1658 53.2437C62.8686 53.2458 63.564 53.3884 64.2112 53.6631C64.8584 53.9379 65.4444 54.3392 65.9351 54.8437C66.4257 55.3482 66.8111 55.9456 67.0687 56.6012C67.3263 57.2568 67.4509 57.9572 67.4352 58.6616V58.7247C67.4568 59.4208 67.3376 60.1141 67.0848 60.7629C66.832 61.4116 66.4509 62.0023 65.9644 62.4995C65.4779 62.9967 64.8961 63.3901 64.2539 63.6559C63.6118 63.9217 62.9226 64.0546 62.2279 64.0464C61.5293 64.0447 60.838 63.9033 60.1945 63.6304C59.5511 63.3576 58.9684 62.9588 58.4806 62.4575C57.9928 61.9561 57.6096 61.3622 57.3536 60.7105C57.0976 60.0589 56.9738 59.3626 56.9895 58.6624V58.609V58.6078Z" fill="#1A1818"/>
<path d="M91.0413 50.2893C89.9996 50.2579 88.9653 50.4762 88.0247 50.9263C87.0841 51.3764 86.2643 52.0452 85.6336 52.877C85.0863 52.0496 84.3362 51.3771 83.4552 50.924C82.5741 50.4709 81.5917 50.2523 80.6021 50.2893C79.7569 50.2649 78.9163 50.4235 78.1378 50.7544C77.3593 51.0853 76.6611 51.5806 76.0909 52.2066V52.0853C76.0792 51.6515 75.8991 51.2395 75.589 50.9368C75.2788 50.6342 74.8631 50.4648 74.4302 50.4648C73.9974 50.4648 73.5816 50.6342 73.2715 50.9368C72.9613 51.2395 72.7812 51.6515 72.7695 52.0853V65.2108C72.7711 65.4285 72.8158 65.6437 72.9012 65.8438C72.9866 66.044 73.111 66.225 73.2669 66.3765C73.4229 66.528 73.6074 66.6468 73.8096 66.726C74.0119 66.8052 74.2279 66.8432 74.445 66.8378C74.6607 66.8433 74.8753 66.8052 75.0759 66.7257C75.2766 66.6461 75.4592 66.5269 75.6128 66.375C75.7665 66.2231 75.888 66.0417 75.9702 65.8417C76.0523 65.6417 76.0934 65.4271 76.0909 65.2108V57.5877C76.0909 55.1064 77.6913 53.3047 79.9056 53.3047C82.1283 53.3047 83.4048 54.7676 83.4048 57.318V65.2108C83.4035 65.4263 83.4451 65.6398 83.5273 65.8388C83.6094 66.0379 83.7304 66.2186 83.8831 66.3701C84.0358 66.5217 84.2172 66.6411 84.4166 66.7215C84.616 66.8018 84.8295 66.8413 85.0443 66.8378C85.2609 66.8426 85.4763 66.8041 85.6778 66.7246C85.8794 66.6451 86.0632 66.5262 86.2185 66.3747C86.3737 66.2233 86.4974 66.0424 86.5822 65.8426C86.667 65.6427 86.7113 65.428 86.7125 65.2108V57.4923C86.7125 54.9904 88.2274 53.3047 90.4715 53.3047C92.745 53.3047 93.9977 54.7502 93.9977 57.3799V65.2112C94.0045 65.6472 94.1821 66.063 94.492 66.3689C94.8019 66.6748 95.2194 66.8463 95.6544 66.8463C96.0893 66.8463 96.5068 66.6748 96.8168 66.3689C97.1267 66.063 97.3043 65.6472 97.311 65.2112V56.849C97.311 52.7997 94.9125 50.2893 91.0409 50.2893H91.0413Z" fill="#1A1818"/>
<path d="M16.6303 71.9616C16.2271 71.965 15.8412 72.1262 15.5549 72.4108C15.2685 72.6954 15.1045 73.0809 15.0977 73.485V92.0536C15.1069 92.4592 15.2741 92.8451 15.5636 93.1288C15.853 93.4124 16.2417 93.5711 16.6464 93.5711C17.0512 93.5711 17.4398 93.4124 17.7293 93.1288C18.0187 92.8451 18.186 92.4592 18.1952 92.0536V73.485C18.1886 73.0752 18.0202 72.6848 17.727 72.3992C17.4337 72.1136 17.0395 71.9563 16.6307 71.9616H16.6303Z" fill="#1A1818"/>
<path d="M30.1344 77.1733C29.1849 77.1415 28.2406 77.327 27.3733 77.7159C26.506 78.1047 25.7385 78.6866 25.1292 79.4173V78.844C25.12 78.4466 24.9561 78.0684 24.6725 77.7906C24.3889 77.5127 24.008 77.3572 23.6115 77.3572C23.2149 77.3572 22.8341 77.5127 22.5504 77.7906C22.2668 78.0684 22.1029 78.4466 22.0938 78.844V92.0815C22.0946 92.2812 22.1353 92.4787 22.2134 92.6623C22.2916 92.846 22.4056 93.0121 22.5489 93.1509C22.6921 93.2897 22.8615 93.3983 23.0473 93.4704C23.2331 93.5425 23.4313 93.5766 23.6304 93.5706C23.8273 93.5751 24.0231 93.5397 24.206 93.4665C24.389 93.3934 24.5554 93.2841 24.6953 93.1451C24.8351 93.0062 24.9457 92.8404 25.0202 92.6576C25.0948 92.4749 25.1318 92.2789 25.1292 92.0815V84.3581C25.1292 81.7482 26.9159 79.9223 29.4702 79.9223C32.0022 79.9223 33.451 81.4717 33.451 84.1794V92.0831C33.4518 92.2826 33.4925 92.48 33.5705 92.6636C33.6486 92.8471 33.7625 93.0131 33.9055 93.1519C34.0486 93.2907 34.2178 93.3993 34.4034 93.4715C34.589 93.5437 34.7871 93.578 34.986 93.5723C35.1827 93.5757 35.378 93.5396 35.5605 93.4661C35.743 93.3926 35.909 93.2833 36.0487 93.1445C36.1883 93.0057 36.2989 92.8403 36.3738 92.6581C36.4487 92.4758 36.4864 92.2802 36.4848 92.0831V83.6227C36.4848 79.708 33.9926 77.1749 30.134 77.1749L30.1344 77.1733Z" fill="#1A1818"/>
<path d="M53.6091 71.0733C53.4122 71.0684 53.2164 71.1032 53.0332 71.1758C52.8501 71.2485 52.6834 71.3573 52.5432 71.496C52.403 71.6346 52.2921 71.8001 52.2171 71.9826C52.1421 72.1652 52.1045 72.361 52.1067 72.5584V79.7586C51.4159 78.9356 50.5512 78.2767 49.5752 77.8299C48.5992 77.3831 47.5363 77.1594 46.4634 77.175C42.6673 77.175 38.6328 80.0748 38.6328 85.4502V85.5077C38.6328 90.8573 42.6661 93.7466 46.4634 93.7466C47.5481 93.7608 48.6215 93.5242 49.6002 93.0552C50.5789 92.5861 51.4366 91.8973 52.1067 91.0421V92.0828C52.1076 92.2821 52.1482 92.4792 52.2261 92.6625C52.3041 92.8459 52.4178 93.0118 52.5605 93.1504C52.7033 93.2891 52.8723 93.3978 53.0575 93.4701C53.2428 93.5424 53.4406 93.5769 53.6393 93.5715C53.8362 93.5754 54.0319 93.5397 54.2148 93.4665C54.3976 93.3932 54.564 93.284 54.704 93.1452C54.8441 93.0064 54.9549 92.8408 55.03 92.6584C55.1051 92.4759 55.143 92.2802 55.1413 92.0828V72.558C55.1399 72.359 55.099 72.1623 55.0208 71.9794C54.9427 71.7965 54.8289 71.6311 54.6862 71.4928C54.5435 71.3545 54.3746 71.2461 54.1896 71.174C54.0046 71.1019 53.8071 71.0676 53.6087 71.0729L53.6091 71.0733ZM52.2015 85.4212V85.485C52.2278 86.9269 51.6828 88.3204 50.686 89.3601C49.6892 90.3999 48.3218 91.001 46.8836 91.0319C43.9478 91.0319 41.7211 88.6464 41.7211 85.485V85.4212C41.7211 82.1668 43.8514 79.8937 46.8836 79.8937C47.5972 79.8986 48.3026 80.0463 48.9585 80.3283C49.6143 80.6103 50.2073 81.0208 50.7027 81.5357C51.1981 82.0506 51.5858 82.6596 51.8432 83.3268C52.1006 83.994 52.2224 84.7061 52.2015 85.4212Z" fill="#1A1818"/>
<path d="M65.9997 77.1733C61.2159 77.1733 57.4727 80.8199 57.4727 85.4834V85.5384C57.4727 90.1541 61.1913 93.7757 65.9425 93.7757C70.7291 93.7757 74.4929 90.1307 74.4929 85.4834V85.4195C74.4929 80.7941 70.7594 77.1733 66.0001 77.1733H65.9997ZM60.5617 85.4215C60.5617 82.2557 62.8748 79.8678 65.9409 79.8678C66.6695 79.8689 67.3906 80.0161 68.0617 80.3007C68.7327 80.5853 69.3403 81.0015 69.8486 81.5249C70.3569 82.0483 70.7556 82.6684 71.0214 83.3485C71.2872 84.0286 71.4146 84.7552 71.3962 85.4854V85.5404C71.3962 88.6836 69.0751 91.0614 65.9993 91.0614C65.2749 91.0606 64.5579 90.9149 63.8903 90.6328C63.2228 90.3507 62.6181 89.938 62.1117 89.4186C61.6053 88.8993 61.2074 88.2839 60.9412 87.6085C60.6751 86.933 60.546 86.2111 60.5617 85.485V85.4211V85.4215Z" fill="#1A1818"/>
<path d="M84.8285 77.1734C83.8788 77.1429 82.9346 77.329 82.0671 77.7177C81.1996 78.1065 80.4315 78.6876 79.8208 79.4174V78.8441C79.8144 78.4453 79.6518 78.0651 79.3682 77.7854C79.0847 77.5057 78.7028 77.349 78.305 77.349C77.9072 77.349 77.5253 77.5057 77.2417 77.7854C76.9581 78.0651 76.7956 78.4453 76.7891 78.8441V92.0816C76.7899 92.2812 76.8305 92.4785 76.9086 92.662C76.9867 92.8456 77.1006 93.0117 77.2436 93.1504C77.3866 93.2892 77.5559 93.3978 77.7415 93.47C77.9271 93.5422 78.1252 93.5765 78.3241 93.5707C78.5212 93.5763 78.7174 93.5417 78.9008 93.469C79.0841 93.3962 79.2508 93.287 79.3908 93.1477C79.5307 93.0085 79.6411 92.8421 79.715 92.6589C79.7889 92.4756 79.8249 92.2793 79.8208 92.0816V84.3582C79.8208 81.7483 81.6072 79.9224 84.1727 79.9224C86.6975 79.9224 88.1487 81.4718 88.1487 84.1795V92.0832C88.1492 92.2824 88.1894 92.4794 88.2669 92.6628C88.3445 92.8461 88.4579 93.0121 88.6004 93.1508C88.743 93.2896 88.9117 93.3983 89.0968 93.4707C89.2818 93.5431 89.4795 93.5777 89.6781 93.5724C89.8751 93.5763 90.0707 93.5405 90.2537 93.4673C90.4366 93.394 90.603 93.2848 90.7431 93.1459C90.8832 93.0071 90.9941 92.8415 91.0692 92.659C91.1443 92.4764 91.1822 92.2807 91.1805 92.0832V83.6228C91.1805 79.7081 88.6827 77.175 84.8285 77.175V77.1734Z" fill="#1A1818"/>
<path d="M101.13 77.1734C96.7235 77.1734 93.2734 80.8123 93.2734 85.4487V85.5061C93.2734 90.2205 96.7747 93.7753 101.435 93.7753C102.568 93.8135 103.696 93.6212 104.753 93.2101C105.809 92.799 106.772 92.1776 107.582 91.3833C107.727 91.263 107.844 91.1126 107.926 90.9424C108.007 90.7722 108.05 90.5863 108.053 90.3976C108.048 90.2202 108.009 90.0456 107.937 89.8836C107.864 89.7216 107.761 89.5755 107.632 89.4536C107.504 89.3317 107.353 89.2366 107.187 89.1735C107.022 89.1104 106.846 89.0806 106.669 89.086C106.343 89.0907 106.029 89.211 105.784 89.4256C104.628 90.5301 103.087 91.1371 101.491 91.1165C98.8167 91.1165 96.8053 89.3374 96.3786 86.6418H107.309C107.685 86.6459 108.048 86.5006 108.317 86.2375C108.587 85.9745 108.742 85.6151 108.748 85.238C108.748 81.2316 106.134 77.173 101.129 77.173L101.13 77.1734ZM96.3782 84.283C96.7985 81.6056 98.6844 79.7797 101.071 79.7797C104.019 79.7797 105.366 82.0325 105.68 84.283H96.3782Z" fill="#1A1818"/>
<path d="M117.136 84.0562L117.077 84.0408C115.161 83.4711 113.357 82.9394 113.357 81.7576V81.7018C113.357 80.5919 114.431 79.8342 116.032 79.8342C117.41 79.8793 118.754 80.2684 119.944 80.9663C120.16 81.0714 120.396 81.1267 120.635 81.1281C120.811 81.1333 120.987 81.1036 121.151 81.0407C121.316 80.9778 121.467 80.883 121.595 80.7617C121.723 80.6403 121.826 80.4948 121.898 80.3335C121.97 80.1722 122.009 79.9983 122.014 79.8217C122.01 79.5677 121.938 79.3193 121.807 79.1019C121.676 78.8845 121.49 78.7058 121.268 78.5841C119.673 77.7355 117.9 77.2756 116.095 77.2417C112.744 77.2417 110.408 79.1752 110.408 81.9436V82.003C110.408 85.1309 113.554 85.9998 115.839 86.6293C117.916 87.1982 119.491 87.729 119.491 88.9841V89.0435C119.491 90.2896 118.333 91.1197 116.603 91.1197C114.895 91.0842 113.235 90.5407 111.836 89.5582C111.61 89.3954 111.338 89.3116 111.06 89.3197C110.703 89.312 110.359 89.446 110.101 89.6926C109.843 89.9392 109.693 90.2781 109.684 90.6353C109.685 90.8524 109.738 91.0661 109.838 91.2586C109.938 91.4511 110.083 91.617 110.26 91.7424C112.094 92.998 114.258 93.6839 116.479 93.7142C120.025 93.7142 122.405 91.7452 122.405 88.8053V88.754C122.405 85.6003 119.231 84.6703 117.133 84.057L117.136 84.0562Z" fill="#1A1818"/>
<path d="M126.545 77.3602C126.149 77.3577 125.769 77.5128 125.487 77.7913C125.205 78.0699 125.046 78.4491 125.043 78.8457V92.0832C125.043 92.2823 125.083 92.4792 125.161 92.6625C125.238 92.8458 125.352 93.0117 125.494 93.1504C125.636 93.2892 125.805 93.398 125.99 93.4705C126.175 93.5429 126.372 93.5776 126.571 93.5723C126.768 93.5779 126.965 93.5434 127.149 93.4708C127.333 93.3982 127.5 93.289 127.641 93.1499C127.781 93.0108 127.893 92.8445 127.968 92.6612C128.042 92.4779 128.08 92.2813 128.077 92.0832V78.8457C128.075 78.6467 128.035 78.4499 127.956 78.2669C127.878 78.084 127.765 77.9185 127.622 77.7801C127.479 77.6418 127.31 77.5334 127.125 77.4612C126.94 77.3891 126.743 77.3548 126.544 77.3602H126.545Z" fill="#1A1818"/>
<path d="M143.142 79.0797C141.93 77.8999 140.146 77.2963 137.838 77.2963C136.031 77.277 134.24 77.6375 132.581 78.3544C132.333 78.4591 132.122 78.6339 131.972 78.8575C131.822 79.0812 131.741 79.3437 131.738 79.613C131.751 79.9689 131.902 80.3057 132.159 80.5513C132.417 80.797 132.76 80.932 133.115 80.9275C133.304 80.921 133.491 80.883 133.669 80.8151C134.905 80.2637 136.243 79.9797 137.596 79.9814C139.562 79.9814 141.897 80.6469 141.897 83.7978V83.8827C140.444 83.5042 138.948 83.3214 137.447 83.3393C133.102 83.3393 130.398 85.3516 130.398 88.5979V88.6671C130.398 92.0007 133.517 93.747 136.597 93.747C137.573 93.7779 138.545 93.6119 139.455 93.2587C140.366 92.9055 141.196 92.3724 141.897 91.691V92.1665C141.898 92.3577 141.938 92.5466 142.014 92.7219C142.09 92.8973 142.2 93.0554 142.339 93.1868C142.477 93.3181 142.641 93.42 142.82 93.4862C142.999 93.5524 143.189 93.5815 143.38 93.5719C143.573 93.5765 143.765 93.5418 143.945 93.4699C144.124 93.398 144.288 93.2904 144.424 93.1536C144.561 93.0167 144.669 92.8534 144.741 92.6736C144.814 92.4938 144.849 92.3012 144.845 92.1075V83.7715C144.845 81.7535 144.274 80.1799 143.141 79.0793L143.142 79.0797ZM141.942 86.269V87.482C141.942 89.6394 139.839 91.2725 137.048 91.2725C135.322 91.2725 133.466 90.4235 133.466 88.5696V88.5179C133.466 86.7514 135.039 85.7026 137.684 85.7026C139.122 85.7023 140.553 85.8927 141.942 86.2686V86.269Z" fill="#1A1818"/>
<path d="M1.4923 118.293C0.570703 118.293 0 117.819 0 117.056C0.00262134 116.845 0.0296894 116.634 0.0806637 116.429L0.943779 113.189H0.151247L0.404937 112.244H1.21159L1.66896 110.506H2.7176L2.24894 112.244H4.05382L3.80617 113.189H1.99888L1.12528 116.435C1.10675 116.565 1.09557 116.697 1.0918 116.828C1.0918 117.16 1.3225 117.327 1.77745 117.327C2.05332 117.32 2.32537 117.261 2.57926 117.153L2.75995 117.082L2.47762 118.093L2.43326 118.111C2.13501 118.234 1.81497 118.296 1.4923 118.293Z" fill="#1A1818"/>
<path d="M8.94122 118.188H7.8841L8.78755 114.801C8.8387 114.599 8.86578 114.391 8.86821 114.183C8.86821 113.491 8.42456 113.078 7.68002 113.078C6.81489 113.078 5.98243 113.829 5.7005 114.864L4.81318 118.188H3.76172L3.79479 118.067L5.98525 109.869H7.0339L6.22321 112.923C6.45417 112.675 6.73266 112.477 7.04202 112.339C7.35138 112.201 7.68524 112.128 8.02365 112.122C8.27744 112.101 8.53293 112.134 8.77289 112.219C9.01285 112.305 9.23168 112.441 9.41464 112.619C9.59759 112.797 9.74041 113.012 9.83345 113.249C9.92648 113.487 9.96758 113.742 9.95396 113.997C9.94017 114.308 9.88994 114.615 9.80433 114.914L8.94122 118.188Z" fill="#1A1818"/>
<path d="M13.581 118.323C12.004 118.323 10.9453 117.3 10.9453 115.776C10.9453 114.047 12.357 112.12 14.3796 112.12C14.6868 112.101 14.9945 112.147 15.2826 112.255C15.5708 112.364 15.8328 112.532 16.0516 112.749C16.2703 112.966 16.4409 113.227 16.5521 113.514C16.6633 113.802 16.7126 114.11 16.6967 114.418C16.6947 114.815 16.6199 115.208 16.4761 115.577L16.4519 115.64H11.9847C11.9823 115.672 11.9823 115.706 11.9823 115.74C11.9669 115.959 11.9988 116.179 12.0757 116.386C12.1527 116.592 12.273 116.779 12.4283 116.934C12.5837 117.09 12.7706 117.21 12.9764 117.287C13.1822 117.364 13.402 117.395 13.621 117.379C14.2503 117.379 14.8577 117.148 15.3278 116.728L15.4041 116.667L15.9687 117.377L15.8961 117.439C15.2613 118.012 14.4357 118.328 13.581 118.323ZM12.1569 114.754H15.638C15.656 114.644 15.6647 114.532 15.6638 114.419C15.6809 114.237 15.6586 114.054 15.5983 113.881C15.538 113.709 15.4413 113.551 15.3146 113.42C15.1879 113.288 15.0344 113.186 14.8645 113.12C14.6947 113.053 14.5125 113.024 14.3304 113.035C13.8339 113.056 13.3565 113.234 12.9664 113.542C12.5762 113.851 12.2931 114.275 12.1573 114.754H12.1569Z" fill="#1A1818"/>
<path d="M26.5478 118.238H25.6484L25.3326 113.906L22.6993 118.238H21.8067L21.332 112.245H22.4081L22.6872 116.606L25.327 112.223H26.1848L26.4885 116.609L29.1202 112.245H30.2423L26.5478 118.238Z" fill="#1A1818"/>
<path d="M32.7776 118.323C32.4199 118.341 32.0622 118.285 31.7276 118.157C31.3929 118.029 31.0885 117.832 30.8339 117.58C30.5793 117.327 30.3801 117.024 30.249 116.69C30.1179 116.356 30.0578 115.998 30.0725 115.639C30.0905 114.719 30.4604 113.841 31.106 113.186C31.7515 112.531 32.6233 112.15 33.5411 112.122C33.8978 112.102 34.2548 112.157 34.5891 112.283C34.9235 112.409 35.2279 112.604 35.483 112.855C35.738 113.105 35.938 113.407 36.0701 113.74C36.2023 114.072 36.2638 114.429 36.2506 114.787C36.2343 115.71 35.8648 116.592 35.2184 117.25C34.5721 117.908 33.6983 118.292 32.7776 118.323ZM33.4862 113.067C32.2512 113.067 31.1272 114.284 31.1272 115.621C31.1062 115.852 31.1355 116.085 31.2131 116.303C31.2908 116.521 31.4148 116.72 31.5768 116.885C31.7387 117.051 31.9346 117.179 32.1509 117.261C32.3672 117.343 32.5986 117.376 32.8292 117.36C34.0646 117.36 35.1903 116.147 35.1903 114.815C35.2116 114.584 35.1825 114.351 35.105 114.132C35.0274 113.913 34.9033 113.713 34.7413 113.547C34.5793 113.381 34.3831 113.252 34.1665 113.17C33.9498 113.087 33.7179 113.052 33.4866 113.069L33.4862 113.067Z" fill="#1A1818"/>
<path d="M37.8277 118.189H36.7734L38.3513 112.245H39.4084L39.1111 113.399C39.3799 113.024 39.7303 112.716 40.1356 112.498C40.541 112.28 40.9907 112.158 41.4504 112.14C41.5101 112.14 41.5714 112.142 41.6311 112.146L41.7481 112.154L41.4601 113.262H41.3246C39.99 113.262 38.8643 114.276 38.4537 115.845L37.8277 118.189Z" fill="#1A1818"/>
<path d="M42.3617 118.188H41.3086L43.5378 109.868H44.5864L44.5542 109.99L42.3617 118.188Z" fill="#1A1818"/>
<path d="M46.9325 118.323C45.5611 118.323 44.5625 117.257 44.5625 115.791C44.5625 113.802 46.079 112.122 47.8746 112.122C48.3106 112.101 48.7434 112.206 49.1208 112.426C49.4983 112.646 49.8044 112.97 50.0021 113.36L50.9298 109.869H51.9881L49.7751 118.189H48.7099L48.9059 117.457C48.6515 117.726 48.3457 117.942 48.0067 118.09C47.6677 118.239 47.3024 118.318 46.9325 118.323ZM47.95 113.067C46.682 113.067 45.6511 114.252 45.6511 115.709C45.6511 116.702 46.2658 117.367 47.1805 117.367C48.4207 117.367 49.638 116.07 49.638 114.749C49.6446 114.526 49.6054 114.303 49.5228 114.096C49.4401 113.888 49.3158 113.699 49.1575 113.542C48.9992 113.384 48.8103 113.261 48.6026 113.18C48.3948 113.098 48.1726 113.06 47.9496 113.069L47.95 113.067Z" fill="#1A1818"/>
<path d="M55.9231 118.188H54.8789L56.4696 112.245H57.5227L55.9231 118.188ZM57.8724 111.181H56.6915L57.0036 110.036H58.1801L57.8724 111.181Z" fill="#1A1818"/>
<path d="M62.9092 118.188H61.8561L62.7583 114.801C62.8085 114.599 62.8356 114.391 62.839 114.183C62.839 113.482 62.4046 113.078 61.6476 113.078C60.784 113.078 59.9516 113.829 59.6676 114.864L58.7864 118.188H57.7305L59.3103 112.245H60.3702L60.1875 112.925C60.4196 112.675 60.6998 112.475 61.0112 112.337C61.3226 112.199 61.6588 112.126 61.9993 112.122C62.2526 112.1 62.5076 112.134 62.7469 112.22C62.9862 112.306 63.2044 112.442 63.3867 112.62C63.5689 112.798 63.7111 113.012 63.8035 113.25C63.8959 113.487 63.9364 113.742 63.9223 113.996C63.9063 114.305 63.857 114.612 63.7751 114.911L62.9092 118.188Z" fill="#1A1818"/>
<path d="M68.2198 120C67.7498 120.002 67.291 119.856 66.9077 119.584L66.8242 119.527L67.4175 118.722L67.4962 118.787C67.738 118.951 68.0225 119.042 68.3149 119.047C68.7965 119.047 69.2022 118.761 69.704 118.057L68.6452 112.244H69.7342L70.5098 116.869L73.4783 112.244H74.6826L70.6562 118.335C69.8504 119.518 69.145 120 68.2198 120Z" fill="#1A1818"/>
<path d="M77.1026 118.323C76.7446 118.342 76.3866 118.285 76.0516 118.158C75.7165 118.03 75.4116 117.833 75.1566 117.581C74.9015 117.328 74.7018 117.025 74.5703 116.691C74.4388 116.357 74.3783 115.998 74.3927 115.639C74.4112 114.718 74.782 113.84 75.4285 113.185C76.075 112.53 76.9476 112.15 77.8661 112.122C78.2233 112.101 78.5809 112.156 78.9159 112.281C79.251 112.407 79.5561 112.602 79.8118 112.853C80.0676 113.104 80.2683 113.405 80.4011 113.738C80.534 114.071 80.5961 114.429 80.5833 114.787C80.566 115.711 80.1951 116.594 79.5474 117.252C78.8996 117.91 78.0244 118.293 77.1026 118.323ZM77.8133 113.067C76.5807 113.067 75.4575 114.284 75.4575 115.621C75.4364 115.852 75.4657 116.084 75.5432 116.303C75.6208 116.521 75.7447 116.72 75.9065 116.885C76.0683 117.05 76.2641 117.179 76.4803 117.26C76.6964 117.342 76.9278 117.376 77.1583 117.36C78.3908 117.36 79.5141 116.147 79.5141 114.815C79.5356 114.584 79.5067 114.351 79.4293 114.132C79.352 113.913 79.2282 113.714 79.0664 113.548C78.9046 113.381 78.7086 113.253 78.4922 113.17C78.2757 113.087 78.044 113.053 77.8129 113.069L77.8133 113.067Z" fill="#1A1818"/>
<path d="M83.4974 118.309C83.2442 118.33 82.9895 118.296 82.7505 118.209C82.5116 118.123 82.2939 117.986 82.1123 117.808C81.9306 117.63 81.7892 117.415 81.6976 117.178C81.606 116.94 81.5663 116.686 81.5812 116.431C81.5923 116.123 81.6412 115.817 81.7268 115.52L82.5899 112.245H83.6385L82.7299 115.623C82.687 115.826 82.6627 116.032 82.6573 116.24C82.6475 116.394 82.672 116.549 82.7287 116.694C82.7854 116.838 82.8731 116.968 82.9855 117.074C83.098 117.18 83.2324 117.261 83.3793 117.309C83.5262 117.358 83.6819 117.373 83.8354 117.354C84.7009 117.354 85.5507 116.581 85.8117 115.554L86.7087 112.245H87.7609L86.1734 118.189H85.1248L85.3091 117.5C85.0771 117.75 84.797 117.951 84.4857 118.09C84.1743 118.229 83.8382 118.303 83.4974 118.309Z" fill="#1A1818"/>
<path d="M88.9544 118.188H87.8984L89.4791 112.245H90.5346L90.2393 113.397C90.977 112.505 91.8123 112.085 92.7617 112.146L92.8791 112.154L92.5867 113.262H92.4532C91.1202 113.262 89.9929 114.276 89.5803 115.846L88.9544 118.188Z" fill="#1A1818"/>
<path d="M100.879 118.188H99.8238L100.719 114.801C100.778 114.6 100.808 114.392 100.809 114.183C100.809 113.491 100.362 113.078 99.6132 113.078C98.7477 113.078 97.9148 113.829 97.6309 114.864L96.7484 118.188H95.6953L95.7288 118.067L97.9197 109.869H98.9683L98.1491 112.924C98.38 112.675 98.6591 112.475 98.9693 112.338C99.2795 112.2 99.6143 112.127 99.9536 112.122C100.208 112.1 100.464 112.133 100.704 112.218C100.945 112.304 101.164 112.44 101.348 112.618C101.531 112.795 101.674 113.01 101.768 113.248C101.861 113.486 101.903 113.742 101.89 113.997C101.875 114.307 101.825 114.614 101.741 114.913L100.879 118.188Z" fill="#1A1818"/>
<path d="M104.452 118.309C103.332 118.309 102.551 117.614 102.551 116.621C102.551 115.317 103.616 114.442 105.202 114.442C105.866 114.452 106.526 114.55 107.164 114.734L107.179 114.685C107.218 114.52 107.24 114.352 107.245 114.183C107.245 113.302 106.46 113.117 105.801 113.117C105.256 113.12 104.717 113.222 104.209 113.419L104.104 113.46L103.916 112.546L103.993 112.516C104.609 112.273 105.266 112.152 105.929 112.159C107.402 112.159 108.281 112.862 108.281 114.04C108.275 114.314 108.237 114.586 108.17 114.851L107.283 118.191H106.234L106.408 117.532C105.882 118.037 105.18 118.316 104.452 118.309ZM105.23 115.273C104.282 115.273 103.621 115.788 103.621 116.526C103.621 117.087 104.045 117.434 104.729 117.434C105.213 117.426 105.682 117.265 106.069 116.973C106.457 116.682 106.742 116.276 106.886 115.812L106.966 115.501C106.4 115.352 105.816 115.275 105.23 115.273H105.23Z" fill="#1A1818"/>
<path d="M114.074 118.188H113.022L113.922 114.801C113.976 114.599 114.004 114.391 114.005 114.183C114.005 113.491 113.562 113.078 112.816 113.078C111.96 113.078 111.124 113.83 110.829 114.865L109.95 118.188H108.898L110.477 112.245H111.531L111.351 112.925C111.582 112.677 111.861 112.478 112.171 112.34C112.481 112.202 112.815 112.128 113.154 112.122C113.408 112.1 113.663 112.133 113.903 112.219C114.142 112.305 114.361 112.441 114.544 112.619C114.727 112.796 114.869 113.011 114.962 113.249C115.055 113.486 115.096 113.741 115.082 113.996C115.071 114.307 115.023 114.615 114.937 114.913L114.074 118.188Z" fill="#1A1818"/>
<path d="M118.466 118.323C117.094 118.323 116.094 117.257 116.094 115.791C116.094 113.802 117.612 112.122 119.408 112.122C119.844 112.103 120.276 112.21 120.653 112.43C121.031 112.65 121.337 112.973 121.537 113.362L122.469 109.868H123.513L121.295 118.188H120.25L120.442 117.452C120.188 117.723 119.882 117.939 119.542 118.089C119.203 118.238 118.836 118.318 118.466 118.323ZM119.491 113.067C118.223 113.067 117.192 114.252 117.192 115.709C117.192 116.718 117.789 117.367 118.711 117.367C119.952 117.367 121.171 116.07 121.171 114.749C121.178 114.526 121.139 114.304 121.058 114.097C120.976 113.889 120.852 113.701 120.694 113.544C120.537 113.386 120.349 113.262 120.142 113.181C119.935 113.099 119.713 113.061 119.491 113.069V113.067Z" fill="#1A1818"/>
</svg>
